<?xml version="1.0" encoding="utf-8"?><!--Generator: Adobe Illustrator 21.0.0, SVG Export Plug-In . SVG Version: 6.00 Build 0)--><svg version="1.1" id="圖層_1" xmlns="http://www.w3.org/2000/svg" xmlns:xlink="http://www.w3.org/1999/xlink" x="0px" y="0px" viewBox="0 0 100 100" enable-background="new 0 0 100 100" xml:space="preserve"><path fill="#C33837" d="M82.5,42.9C82.5,25,67.9,10.4,50,10.4c-17.9,0-32.5,14.6-32.5,32.5c0,15.3,10.6,28.2,24.9,31.6l4.2,12.6 c1.1,3.3,5.7,3.3,6.8,0l4.2-12.6C71.9,71.1,82.5,58.3,82.5,42.9z"/><g><path fill="#F5E169" d="M26.9,35.1h4.2l4.5,8.4l0-3.9v-4.5h3.9v15.6h-4.2l-4.5-8.5l0,4v4.5h-3.9V35.1z"/><path fill="#F5E169" d="M43,35.1h10.1v3.5h-6V41h5.1v3.5h-5.1v2.8h6v3.5H43V35.1z"/><path fill="#F5E169" d="M54.9,35.1h3.5c0,0,1.4,10.2,1.5,11.8l2.4-11.8h4l1.9,11.8c0.2-1.6,1.4-11.8,1.4-11.8h3.6l-2.3,15.6h-5.2 c0,0-1.5-8.7-1.6-9.8H64c-0.2,1.2-1.5,9.8-1.5,9.8h-5.1L54.9,35.1z"/></g><metadata xmlns:d="https://loading.io/stock/">
<d:name>new</d:name>
<d:tags>new,poi,gps,marker,latest,fresh</d:tags>
<d:license>by</d:license>
<d:slug>kdiuuh</d:slug>
</metadata></svg>